<?xml version="1.0" encoding="utf-8"?>
<!-- Svg Vector Icons : http://www.onlinewebfonts.com/icon -->
<!DOCTYPE svg PUBLIC "-//W3C//DTD SVG 1.1//EN" "http://www.w3.org/Graphics/SVG/1.1/DTD/svg11.dtd">
<svg version="1.1" xmlns="http://www.w3.org/2000/svg" xmlns:xlink="http://www.w3.org/1999/xlink" x="0px" y="0px" viewBox="0 0 1000 1000" enable-background="new 0 0 1000 1000" xml:space="preserve">
<metadata> Svg Vector Icons : http://www.onlinewebfonts.com/icon </metadata>
<g fill="#FFF"><path d="M315.7,851c-38.3,0-69.4,31-69.4,69.4c0,38.3,31.1,69.4,69.4,69.4c38.3,0,69.4-31.1,69.4-69.4C385.1,882,354,851,315.7,851z M315.7,928.5c-4.5,0-8.1-3.7-8.1-8.1c0-4.5,3.7-8.1,8.1-8.1c4.5,0,8.1,3.6,8.1,8.1C323.8,924.9,320.2,928.5,315.7,928.5z"/><path d="M824.5,851c-38.3,0-69.4,31-69.4,69.4c0,38.3,31.1,69.4,69.4,69.4c38.3,0,69.4-31.1,69.4-69.4C893.9,882,862.8,851,824.5,851z M824.5,928.5c-4.5,0-8.1-3.7-8.1-8.1c0-4.5,3.7-8.1,8.1-8.1c4.5,0,8.1,3.6,8.1,8.1C832.6,924.9,829,928.5,824.5,928.5z"/><path d="M913.1,174.6H198.4c-8.7-54-14.8-91.9-15.9-99.7c-3.9-26-18.2-46.3-40.3-57c-15-7.2-28.8-7.7-32.3-7.7c0,0,0,0,0,0H40.6C23.7,10.2,10,23.9,10,40.9c0,16.9,13.7,30.6,30.6,30.6h68.9c1.1,0.1,4.3,0.6,6.9,2.1c1.4,0.8,4.4,2.5,5.5,10.4C127,118.2,222,703.3,228.3,741.8c0.6,6.2,3.1,21,13.5,35.9c11.2,16.1,33.6,35.3,76.7,35.3h569c16.9,0,30.6-13.7,30.6-30.6c0-16.9-13.7-30.6-30.6-30.6h-569c-8.6,0-20-1.4-25.6-7.9c-2.5-3-3.3-6.4-3.6-7.6c0-1.4-0.1-1.4-0.4-3.1c-0.2-1.2-3.8-23.6-9.7-59.6h565.6c46.8,0,79.8-25.4,90.7-69.6c0.2-0.9,0.4-1.7,0.5-2.6l53.7-345.1c0.2-1.6,0.4-3.1,0.4-4.7C990,209.1,955.5,174.6,913.1,174.6z M875.7,590.5c-3.5,13.1-10.3,21.8-30.9,21.8H269.3c-17.1-105.7-42.2-259.9-61-376.4h704.8c8,0,14.7,6.1,15.5,13.9L875.7,590.5z"/></g>
</svg>